<svg xmlns="http://www.w3.org/2000/svg" xmlns:xlink="http://www.w3.org/1999/xlink" width="800" zoomAndPan="magnify" viewBox="0 0 600 112.499997" height="150" preserveAspectRatio="xMidYMid meet" version="1.0"><defs><clipPath id="7ba40ba12e"><path d="M 1.328125 0 L 598.671875 0 L 598.671875 112.003906 L 1.328125 112.003906 Z M 1.328125 0 " clip-rule="nonzero"/></clipPath><clipPath id="14aab07cbe"><path d="M 8.917969 19.625 L 63.734375 19.625 L 63.734375 94.355469 L 8.917969 94.355469 Z M 8.917969 19.625 " clip-rule="nonzero"/></clipPath><clipPath id="768fde46b2"><path d="M 62.832031 19.625 L 62.832031 34 L 27.785156 34 L 27.785156 49.277344 L 61.035156 49.277344 L 61.035156 62.753906 L 27.785156 62.753906 L 27.785156 79.832031 L 63.726562 79.832031 L 63.726562 94.207031 L 8.917969 94.207031 L 8.917969 20.96875 L 10.261719 19.625 Z M 62.832031 19.625 " clip-rule="nonzero"/></clipPath><clipPath id="fe5aa5b2cd"><path d="M 78.113281 20.523438 L 152 20.523438 L 152 94.5 L 78.113281 94.5 Z M 78.113281 20.523438 " clip-rule="nonzero"/></clipPath><clipPath id="abd738f35d"><path d="M 96.980469 80.730469 L 110.910156 80.730469 C 112.199219 80.730469 117.800781 79.074219 119.429688 78.464844 C 135.59375 72.4375 137.191406 46.835938 123.339844 37.742188 C 121.53125 36.554688 115.460938 33.996094 113.605469 33.996094 L 96.980469 33.996094 Z M 78.113281 94.210938 L 78.113281 20.523438 L 120.792969 20.523438 C 122.953125 20.523438 132.640625 24.695312 134.992188 26.097656 C 165.386719 44.152344 152.425781 94.214844 116.304688 94.214844 Z M 78.113281 94.210938 " clip-rule="nonzero"/></clipPath><clipPath id="400aa43760"><path d="M 165.277344 20.523438 L 238.964844 20.523438 L 238.964844 95.363281 L 165.277344 95.363281 Z M 165.277344 20.523438 " clip-rule="nonzero"/></clipPath><clipPath id="9a13ae62b1"><path d="M 184.144531 20.523438 L 184.144531 66.800781 C 184.144531 68.0625 187.539062 73.664062 188.726562 74.796875 C 195.136719 80.914062 210.457031 80.679688 216.355469 73.84375 C 217.210938 72.851562 220.089844 67.691406 220.089844 66.792969 L 220.089844 20.523438 L 238.964844 20.523438 L 238.964844 69.5 C 238.964844 71.050781 236.175781 78.417969 235.230469 80.144531 C 221.667969 104.746094 165.277344 98.128906 165.277344 68.601562 L 165.277344 20.523438 Z M 184.144531 20.523438 " clip-rule="nonzero"/></clipPath><clipPath id="7511e6eec3"><path d="M 253 3.0625 L 587.757812 3.0625 L 587.757812 108.976562 L 253 108.976562 Z M 253 3.0625 " clip-rule="nonzero"/></clipPath><clipPath id="f24c4c99a5"><path d="M 575.054688 20.523438 L 532.816406 20.523438 L 532.816406 94.210938 L 575.945312 94.210938 L 575.945312 84.324219 L 543.605469 84.324219 L 543.605469 63.207031 L 544.949219 61.863281 L 574.152344 61.863281 L 574.152344 51.976562 L 544.5 51.976562 C 543.136719 44.898438 543.136719 37.453125 544.5 30.410156 L 575.054688 30.410156 Z M 451.042969 94.210938 L 487.441406 94.210938 C 494.445312 94.210938 507.875 85.035156 512.152344 79.382812 C 529.332031 56.695312 513.304688 20.523438 484.742188 20.523438 L 451.042969 20.523438 Z M 433.96875 20.523438 L 423.1875 20.523438 L 423.1875 94.210938 L 433.96875 94.210938 Z M 354.886719 20.523438 L 344.105469 20.523438 L 344.105469 68.601562 C 344.105469 104.359375 407.90625 103.226562 407.90625 69.5 L 407.90625 20.523438 L 397.121094 20.523438 L 397.121094 69.5 C 397.121094 71.113281 395.019531 76.382812 393.914062 77.96875 C 386.3125 88.898438 361.296875 88.269531 356.625 74.949219 C 356.265625 73.933594 354.886719 68.320312 354.886719 67.699219 Z M 329.726562 89.71875 L 329.726562 58.714844 L 328.382812 57.371094 L 305.914062 57.371094 C 303.351562 59.742188 304.96875 64.042969 304.566406 67.257812 L 318.945312 67.257812 L 318.945312 82.53125 C 308.535156 85.902344 296.183594 87.234375 286.300781 81.476562 C 270.316406 72.15625 269.578125 46.644531 283.972656 35.425781 C 297.136719 25.167969 314.417969 29.4375 327.917969 36.695312 C 328.832031 25.492188 328.15625 24.871094 318.054688 21.863281 C 288.679688 13.113281 259.558594 29.851562 262.296875 62.34375 C 265.097656 95.597656 304.382812 101.417969 329.726562 89.71875 M 587.632812 108.585938 L 253.34375 108.585938 L 253.34375 4.792969 L 254.6875 3.449219 L 586.289062 3.449219 L 587.632812 4.792969 Z M 587.632812 108.585938 " clip-rule="nonzero"/></clipPath><clipPath id="fadd0d2c95"><path d="M 451 20.132812 L 519.484375 20.132812 L 519.484375 94.53125 L 451 94.53125 Z M 451 20.132812 " clip-rule="nonzero"/></clipPath><clipPath id="044e39557f"><path d="M 461.824219 84.324219 L 485.640625 84.324219 C 486.855469 84.324219 493.242188 81.703125 494.789062 80.890625 C 512.207031 71.796875 512.558594 43.125 494.789062 33.832031 C 493.242188 33.023438 486.847656 30.402344 485.640625 30.402344 L 461.824219 30.402344 Z M 451.042969 94.210938 L 451.042969 20.523438 L 484.742188 20.523438 C 513.304688 20.523438 529.332031 56.695312 512.152344 79.382812 C 507.875 85.035156 494.445312 94.210938 487.441406 94.210938 Z M 451.042969 94.210938 " clip-rule="nonzero"/></clipPath><clipPath id="bb1ec48cc3"><path d="M 262 19.257812 L 329.984375 19.257812 L 329.984375 95.40625 L 262 95.40625 Z M 262 19.257812 " clip-rule="nonzero"/></clipPath><clipPath id="2eb82236cb"><path d="M 329.726562 89.71875 C 304.382812 101.417969 265.097656 95.597656 262.296875 62.34375 C 259.558594 29.859375 288.679688 13.113281 318.054688 21.863281 C 328.15625 24.871094 328.832031 25.492188 327.917969 36.695312 C 314.410156 29.4375 297.136719 25.167969 283.972656 35.425781 C 269.578125 46.644531 270.316406 72.148438 286.300781 81.46875 C 296.183594 87.230469 308.535156 85.898438 318.945312 82.523438 L 318.945312 67.25 L 304.566406 67.25 C 304.972656 64.042969 303.359375 59.738281 305.914062 57.363281 L 328.375 57.363281 L 329.71875 58.707031 Z M 329.726562 89.71875 " clip-rule="nonzero"/></clipPath><clipPath id="8d054b99a1"><path d="M 344 20.132812 L 408 20.132812 L 408 95.40625 L 344 95.40625 Z M 344 20.132812 " clip-rule="nonzero"/></clipPath><clipPath id="d39c100a92"><path d="M 354.886719 20.523438 L 354.886719 67.699219 C 354.886719 68.320312 356.265625 73.929688 356.625 74.949219 C 361.296875 88.269531 386.3125 88.898438 393.914062 77.96875 C 395.019531 76.375 397.121094 71.113281 397.121094 69.5 L 397.121094 20.523438 L 407.90625 20.523438 L 407.90625 69.5 C 407.90625 103.226562 344.105469 104.351562 344.105469 68.601562 L 344.105469 20.523438 Z M 354.886719 20.523438 " clip-rule="nonzero"/></clipPath><clipPath id="b3370d0fd3"><path d="M 532.617188 20.132812 L 576 20.132812 L 576 94.53125 L 532.617188 94.53125 Z M 532.617188 20.132812 " clip-rule="nonzero"/></clipPath><clipPath id="37217c6e2b"><path d="M 575.054688 20.523438 L 575.054688 30.410156 L 544.5 30.410156 C 543.136719 37.453125 543.136719 44.898438 544.5 51.976562 L 574.160156 51.976562 L 574.160156 61.863281 L 544.949219 61.863281 L 543.605469 63.207031 L 543.605469 84.324219 L 575.953125 84.324219 L 575.953125 94.210938 L 532.816406 94.210938 L 532.816406 20.523438 Z M 575.054688 20.523438 " clip-rule="nonzero"/></clipPath><clipPath id="0407891da2"><path d="M 423.1875 20.523438 L 433.96875 20.523438 L 433.96875 94.210938 L 423.1875 94.210938 Z M 423.1875 20.523438 " clip-rule="nonzero"/></clipPath><clipPath id="f4e264516d"><path d="M 461.714844 30.199219 L 508 30.199219 L 508 84.464844 L 461.714844 84.464844 Z M 461.714844 30.199219 " clip-rule="nonzero"/></clipPath><clipPath id="fc65b2c85d"><path d="M 461.824219 84.324219 L 461.824219 30.410156 L 485.640625 30.410156 C 486.847656 30.410156 493.242188 33.03125 494.789062 33.839844 C 512.558594 43.125 512.207031 71.796875 494.789062 80.894531 C 493.242188 81.703125 486.847656 84.332031 485.640625 84.332031 Z M 461.824219 84.324219 " clip-rule="nonzero"/></clipPath></defs><g clip-path="url(#7ba40ba12e)"><path fill="#ffffff" d="M 1.328125 0 L 598.671875 0 L 598.671875 112.003906 L 1.328125 112.003906 Z M 1.328125 0 " fill-opacity="1" fill-rule="nonzero"/><path fill="#ffffff" d="M 1.328125 0 L 598.671875 0 L 598.671875 112.003906 L 1.328125 112.003906 Z M 1.328125 0 " fill-opacity="1" fill-rule="nonzero"/></g><g clip-path="url(#14aab07cbe)"><g clip-path="url(#768fde46b2)"><path fill="#030303" d="M 8.917969 19.625 L 63.734375 19.625 L 63.734375 94.140625 L 8.917969 94.140625 Z M 8.917969 19.625 " fill-opacity="1" fill-rule="nonzero"/></g></g><g clip-path="url(#fe5aa5b2cd)"><g clip-path="url(#abd738f35d)"><path fill="#030303" d="M 78.113281 20.523438 L 152.085938 20.523438 L 152.085938 94.210938 L 78.113281 94.210938 Z M 78.113281 20.523438 " fill-opacity="1" fill-rule="nonzero"/></g></g><g clip-path="url(#400aa43760)"><g clip-path="url(#9a13ae62b1)"><path fill="#030303" d="M 165.277344 20.523438 L 238.964844 20.523438 L 238.964844 95.363281 L 165.277344 95.363281 Z M 165.277344 20.523438 " fill-opacity="1" fill-rule="nonzero"/></g></g><g clip-path="url(#7511e6eec3)"><g clip-path="url(#f24c4c99a5)"><path fill="#030303" d="M 249.894531 0 L 591.261719 0 L 591.261719 112.039062 L 249.894531 112.039062 Z M 249.894531 0 " fill-opacity="1" fill-rule="nonzero"/></g></g><g clip-path="url(#fadd0d2c95)"><g clip-path="url(#044e39557f)"><path fill="#fefefe" d="M 249.894531 0 L 591.261719 0 L 591.261719 112.039062 L 249.894531 112.039062 Z M 249.894531 0 " fill-opacity="1" fill-rule="nonzero"/></g></g><g clip-path="url(#bb1ec48cc3)"><g clip-path="url(#2eb82236cb)"><path fill="#fefefe" d="M 249.894531 0 L 591.261719 0 L 591.261719 112.039062 L 249.894531 112.039062 Z M 249.894531 0 " fill-opacity="1" fill-rule="nonzero"/></g></g><g clip-path="url(#8d054b99a1)"><g clip-path="url(#d39c100a92)"><path fill="#fefefe" d="M 249.894531 0 L 591.261719 0 L 591.261719 112.039062 L 249.894531 112.039062 Z M 249.894531 0 " fill-opacity="1" fill-rule="nonzero"/></g></g><g clip-path="url(#b3370d0fd3)"><g clip-path="url(#37217c6e2b)"><path fill="#fefefe" d="M 249.894531 0 L 591.261719 0 L 591.261719 112.039062 L 249.894531 112.039062 Z M 249.894531 0 " fill-opacity="1" fill-rule="nonzero"/></g></g><g clip-path="url(#0407891da2)"><path fill="#fefefe" d="M 249.894531 0 L 591.261719 0 L 591.261719 112.039062 L 249.894531 112.039062 Z M 249.894531 0 " fill-opacity="1" fill-rule="nonzero"/></g><g clip-path="url(#f4e264516d)"><g clip-path="url(#fc65b2c85d)"><path fill="#030303" d="M 249.894531 0 L 591.261719 0 L 591.261719 112.039062 L 249.894531 112.039062 Z M 249.894531 0 " fill-opacity="1" fill-rule="nonzero"/></g></g></svg>